Simulation
nRows=15
nColumns=15
endheader
time  TH_x TH_y TH_z SC_y  SC_z  SC_x  AC_y  AC_z  AC_x  GH_y  GH_z  GH_yy  EL_x  PS_y
0.0  0.000000  0.000000  0.000000  -13.920801030797405  -6.773619867082653  1.5361372896093215  54.49567928070291  2.6645582431800294  -19.164847814893708  30.4564658348452  19.05955758798101  -15.556437436605549  23.71401124991849  120.000000
0.026999999999999993  0.000000  0.000000  0.000000  -14.131495212901362  -6.537598313727117  0.8819607393059761  54.24253712208647  3.2948672670715236  -18.66383388872742  26.309137356072988  19.12094575330784  -11.550819101377899  23.340495946079248  120.000000
0.053999999999999986  0.000000  0.000000  0.000000  -14.331324782460351  -6.3647468315049505  0.09289129271822988  54.05334832787442  3.8203013719867496  -17.987097882282647  22.957686757495413  19.317793777843416  -8.332213116827253  23.068189956772766  120.000000
0.08099999999999997  0.000000  0.000000  0.000000  -14.504066343733477  -6.263514469161649  -0.7806148365267289  53.903633254700914  4.268638209660929  -17.221135000685244  20.36417076919757  19.61118202275101  -5.868373795030092  22.869482879183536  120.000000
0.10799999999999997  0.000000  0.000000  0.000000  -14.637065389236652  -6.227235467813648  -1.7297065508399703  53.78255338676349  4.685824810058174  -16.426662272416287  18.463219214127545  19.989761345994598  -4.101384753893433  22.72425715445363  120.000000
0.13499999999999995  0.000000  0.000000  0.000000  -14.726344477847336  -6.241912327475883  -2.739706971223409  53.66861881467619  5.101537990072168  -15.65051583286757  17.098601142937436  20.44105469149358  -2.8878901877263883  22.60883992680153  120.000000
0.16199999999999995  0.000000  0.000000  0.000000  -14.772617685983152  -6.295233884131924  -3.791474755167432  53.5355904340239  5.534638091117759  -14.917878070937984  16.073831314949448  20.966245232887836  -2.047857466936698  22.502861619904255  120.000000
0.18899999999999995  0.000000  0.000000  0.000000  -14.779221307234678  -6.374348156599884  -4.845785156114843  53.36733132387667  5.9826596226179625  -14.236773915401631  15.213106445183975  21.567546438351016  -1.4197293316490907  22.39116990645552  120.000000
0.21599999999999994  0.000000  0.000000  0.000000  -14.744624498675183  -6.466967983573955  -5.885873136168495  53.16528688532856  6.44025988652131  -13.603854810107572  14.386783999040896  22.260224668254157  -0.8864861745986644  22.268035775909507  120.000000
0.24299999999999994  0.000000  0.000000  0.000000  -14.672924911392947  -6.556988292158754  -6.893616624742066  52.93783557853214  6.8950771215142  -13.011068667752049  13.511655042171501  23.052110309262982  -0.3733042678001433  22.13209828662031  120.000000
0.2699999999999999  0.000000  0.000000  0.000000  -14.566981006454565  -6.632603432682241  -7.860314582117495  52.695459095361635  7.339993026572556  -12.448227263444034  12.53890802435941  23.953332220731145  0.16121906738232195  21.98589213788713  120.000000
0.29699999999999993  0.000000  0.000000  0.000000  -14.437625000375109  -6.67987941279238  -8.774388100002886  52.44942550179893  7.768145514953128  -11.905298749605043  11.458298188124234  24.965769096143436  0.7235416591156345  21.833468183436782  120.000000
0.3239999999999999  0.000000  0.000000  0.000000  -14.290620843069165  -6.687614633440632  -9.6296561989601  52.20992747470785  8.178291539022402  -11.376034899578016  10.280378599257965  26.090165572561  1.299762364212849  21.67992324031788  120.000000
0.3509999999999999  0.000000  0.000000  0.000000  -14.139970348668921  -6.643767684911176  -10.415474669571068  51.98607401504216  8.569972796323075  -10.856622429291084  9.03437316575524  27.319310716088115  1.860017198743678  21.530302842162296  120.000000
0.3779999999999999  0.000000  0.000000  0.000000  -13.991809994239816  -6.538174614331183  -11.124605724654256  51.785364271737954  8.94714931741259  -10.347816507766597  7.753663526002178  28.644614503503753  2.3701398422514997  21.388892122472082  120.000000
